<?xml version="1.0" encoding="utf-8"?><svg viewBox="0 0 800 800" xmlns="http://www.w3.org/2000/svg" xmlns:xlink="http://www.w3.org/1999/xlink"><style>:root>svg{display:none}:root>svg:target{display:block}</style><svg viewBox="0 0 24 24" fill="none" id="cloud-sun-svgrepo-com" xmlns="http://www.w3.org/2000/svg"><path d="M11.095 8.027A5.002 5.002 0 0 1 21 9a5 5 0 0 1-2.96 4.566m-6.945-5.54A5.059 5.059 0 0 0 7 11c-2.4.375-4 2.314-4 4.414C3 17.947 5.149 20 7.8 20H15c2.21 0 4-1.728 4-3.86 0-.957-.361-1.87-.96-2.574m-6.945-5.54c.17-.017.343-.026.518-.026 2.662 0 4.837 1.99 4.987 4.5.558.235 1.05.606 1.44 1.066" stroke="#000" stroke-width="2" stroke-linecap="round" stroke-linejoin="round"/></svg><svg viewBox="0 0 24 24" fill="none" id="cloud-up-arrow-svgrepo-com" xmlns="http://www.w3.org/2000/svg"><path d="M12 21V11m0 0-3 3m3-3 3 3m-8 2.818c-2.304-.61-4-2.693-4-5.169C3 9.2 4.8 6.938 7.5 6.5 8.347 4.486 10.351 3 12.69 3c2.994 0 5.442 2.323 5.61 5.25 1.59.695 2.7 2.4 2.7 4.247a4.503 4.503 0 0 1-4 4.476" stroke="#000" stroke-width="2" stroke-linecap="round" stroke-linejoin="round"/></svg><svg viewBox="0 0 24 24" fill="none" id="droplet-degree-svgrepo-com" xmlns="http://www.w3.org/2000/svg"><path d="M21 14.7c0 3.48-1.956 6.3-5.5 6.3S10 18.18 10 14.7 15.5 3 15.5 3 21 11.22 21 14.7zM9 6a3 3 0 1 1-6 0 3 3 0 0 1 6 0z" stroke="#000" stroke-width="2" stroke-linecap="round" stroke-linejoin="round"/></svg><svg viewBox="0 0 24 24" fill="none" id="droplets-svgrepo-com" xmlns="http://www.w3.org/2000/svg"><path d="M21 14.7c0 3.48-1.956 6.3-5.5 6.3S10 18.18 10 14.7 15.5 3 15.5 3 21 11.22 21 14.7zM8 8.2C8 9.746 7.11 11 5.5 11 3.89 11 3 9.746 3 8.2 3 6.654 5.5 3 5.5 3S8 6.654 8 8.2z" stroke="#000" stroke-width="2" stroke-linecap="round" stroke-linejoin="round"/></svg></svg>